/* XPM */
static char *QmFja2dyb3VuZCslMjg1JTI5[] = {
/* columns rows colors chars-per-pixel */
"30 30 76 1 ",
"  c #94B820",
". c #8FB31B",
"X c #93B71F",
"o c #91B51D",
"O c #95B921",
"+ c #98BC24",
"@ c #9DC129",
"# c #9DC128",
"$ c #95BA1F",
"% c #90B51A",
"& c #93B81D",
"* c #92B71C",
"= c #90B41C",
"- c #92B61E",
"; c #96BA22",
": c #9ABE26",
"> c #97BB23",
", c #9ABF25",
"< c #9EC328",
"1 c #97BC21",
"2 c #99BE23",
"3 c #94B91E",
"4 c #9CC126",
"5 c #91B61C",
"6 c #9EC22A",
"7 c #90B51B",
"8 c #8FB419",
"9 c #A2C72C",
"0 c #99BD25",
"q c #9BBF27",
"w c #92B61D",
"e c #8EB318",
"r c #8AAF14",
"t c #91B61B",
"y c #9DC227",
"u c #8CB018",
"i c #A2C62E",
"p c #A4C830",
"a c #99BE24",
"s c #9ABF24",
"d c #96BB20",
"f c #9FC32B",
"g c #9CC028",
"h c #8BAF17",
"j c #9FC32A",
"k c #A0C52A",
"l c #98BD22",
"z c #9BC025",
"x c #8EB21A",
"c c #A0C42C",
"v c #99BD24",
"b c #9FC429",
"n c #89AE13",
"m c #91B51C",
"M c #99BD23",
"N c #95B920",
"B c #98BD23",
"V c #96BA21",
"C c #97BB22",
"Z c #98BC23",
"A c #92B71D",
"S c #94B91F",
"D c #94B81E",
"F c #8DB119",
"G c #94B81F",
"H c #A1C52D",
"J c #9BBF26",
"K c #93B71E",
"L c #95BA20",
"P c #9EC329",
"I c #8DB217",
"U c #8AAE16",
"Y c #8EB319",
"T c #92B71E",
"R c #93B81E",
"E c #9FC42A",
/* pixels */
" .XoO+@#$$%&$$*=.X-+;- :>>+ >=",
">=Xoo O,<<123$4 5>oXo;++;6:=o=",
"==-+  X7$$8&319O >-X-O  0+=X@o",
"oq>q;o w&er3tty> :;0 o-Xo.u i+",
";pq+;=;as&&sddsX=O;fg;O.ho.=0p",
">60..-:jklzz*$$ox=oqc@OoX;-o-@",
" oOxx-Ovbsbdnt* xoo>0+OX;O- = ",
" xo.. om3&Mdet8 =O=o ONBBVCZA5",
";.XO+@>S&*D1$8e;X;xF ;G2s$1l$t",
"oFo;gHqJl&3d*t3+00..XOKLl$**33",
"xh= >@iP1t&13*l+gf > XG3&38833",
"-xXX-O>,d&d4sd<-:c;:  KII%%&l*",
" = XooUY$&&ss2k.O+X>;qa$*324z&",
"++q::g.Yd$%3$&2=  oXX+Jbb4<bst",
".;H+gi+Ss4$11t*=o>==.T$zblsz38",
"%$*&t33&2y422te$dr3&%&&Agq==u ",
"$&1s&8t&$zz1l8I$dKl&&1N->; >oX",
"d1ss*t&*31d&$8r$db4$lsCOo= O-x",
"zkydt3te8tt%ld$$$ks$zsGox.;q6-",
"kk2$&$%8*&&&s2*l%sd$s$m-o-X>H>",
"41&d$ll$&*d1y4*z*$3$1&7o--.=q ",
"***3$442d&3*y<$y13333$RoOO.oqX",
"t*te*2ddd3%%1s$zl3$l1$wO@: -; ",
"18tI*d*&*d**3d18%*$244Zqf0 o.;",
"d&$3$l1$t2sd11dI*&3t3yE@:X-=.o",
"$l1d2yyltsbzzzdd$$3eedaOo-;;;=",
"s4l*2k<2&1bsz182s2$3d$S-.->+q=",
"bbdt141&t%l$l*Id4b4szlK=F.;OH>",
"4z&&$d$8e%13183%d44saBS=.- oq+",
"$$t$&83*&2<1$e1&%tdl&%7 O0Xx>o"
};
