/* XPM */
static char *d2FsbCslMjgxJTI5[] = {
/* columns rows colors chars-per-pixel */
"32 32 129 2 ",
"   c #010101",
".  c #050202",
"X  c #080303",
"o  c #090403",
"O  c #0B0504",
"+  c #0C0504",
"@  c #0D0605",
"#  c #0F0706",
"$  c #100706",
"%  c #110706",
"&  c #1C0D09",
"*  c #210F0C",
"=  c #240F0C",
"-  c #26110D",
";  c #29110E",
":  c #2D120F",
">  c #2E130F",
",  c #2E1310",
"<  c #321411",
"1  c #3A1713",
"2  c #3B1814",
"3  c #3C1914",
"4  c #431B16",
"5  c #441A15",
"6  c #481C17",
"7  c #4C1D19",
"8  c #4F1F1A",
"9  c #521E1B",
"0  c #571F1B",
"q  c #4F201A",
"w  c #4D221B",
"e  c #54211B",
"r  c #51241C",
"t  c #50261E",
"y  c #59221C",
"u  c #5B231D",
"i  c #5B241D",
"p  c #5C241D",
"a  c #63261F",
"s  c #632620",
"d  c #672721",
"f  c #6A2522",
"g  c #602B22",
"h  c #672821",
"j  c #652D23",
"k  c #692821",
"l  c #6D2A22",
"z  c #712B24",
"x  c #772D26",
"c  c #7C2F27",
"v  c #653026",
"b  c #703227",
"n  c #78352B",
"m  c #7C372C",
"M  c #773A2D",
"N  c #7F3E30",
"B  c #822D28",
"V  c #83322A",
"C  c #80392D",
"Z  c #92372E",
"A  c #803E31",
"S  c #823F31",
"D  c #853C31",
"F  c #883C30",
"G  c #8B3F32",
"H  c #903F33",
"J  c #993A30",
"K  c #A63F35",
"L  c #844032",
"P  c #864133",
"I  c #874133",
"U  c #8A4334",
"Y  c #8C4435",
"T  c #8D4435",
"R  c #934134",
"E  c #944234",
"W  c #964235",
"Q  c #924737",
"!  c #934737",
"~  c #984336",
"^  c #994537",
"/  c #9E4C3C",
"(  c #9F4D3C",
")  c #A94035",
"_  c #AA4036",
"`  c #AB4639",
"'  c #A24F3D",
"]  c #A54F3E",
"[  c #AC4C3D",
"{  c #AF4F3E",
"}  c #B64539",
"|  c #B7453A",
" . c #A4503E",
".. c #C0493D",
"X. c #A85140",
"o. c #AA5240",
"O. c #AD5442",
"+. c #B45040",
"@. c #B15643",
"#. c #B45543",
"$. c #B45744",
"%. c #BC5342",
"&. c #B55844",
"*. c #BB5B47",
"=. c #C45041",
"-. c #C15644",
";. c #C65846",
":. c #C75846",
">. c #C85947",
",. c #C35F4A",
"<. c #CB5C49",
"1. c #D85F4C",
"2. c #C6604B",
"3. c #C7614B",
"4. c #C8614C",
"5. c #CD634D",
"6. c #CE644E",
"7. c #D1644E",
"8. c #D0654F",
"9. c #D9604C",
"0. c #DD624E",
"q. c #DE634F",
"w. c #D26650",
"e. c #D56751",
"r. c #E06651",
"t. c #E76E56",
"y. c #E67057",
"u. c #E97058",
"i. c #EB7259",
/* pixels */
"& + + + O O + V 8                 . . . o o O 8 V + O + O O O + ",
"+ 0.0.r.i.i.L k ; %.1.9.i.i.i.i.i.i.i.i.i.i.6.; h m 0.0.t.i.i.+ ",
"* 0.0.r.i.i.L h ; -.0.q.i.i.i.i.i.i.i.i.i.i.6.- h m 0.0.t.i.i.+ ",
"1.0.0.r.i.i.L d ; -.0.q.i.i.i.i.i.i.i.i.i.i.6.; h m 0.0.t.i.i.+ ",
"R 0.0.r.i.i.L d ; -.0.q.i.i.i.i.i.i.i.i.i.i.6.; f m 0.0.t.i.i.O ",
"O 0.0.r.i.i.L d ; -.0.0.i.i.i.i.i.i.i.i.i.i.6.- d m 0.0.t.i.i.O ",
"% F F F ! ! t z < n U F ! ! ! ! ! ! ! ! ! ! C < z w U G Y Q ! O ",
"B u 0 u u u h ..K u u i u u u u u u u u u u p ) } d i i i i i x ",
"9 * * * - & - * * * * * * * ; J J ; * * * * * * - - - * * * * 5 ",
"O +.+.%.3.3.3.3.6.6.6.w.w.w.! 9 9 G >.:.w.6.6.3.4.3.,.3.,.,.,.X ",
"+ 0.0.r.i.i.i.i.i.i.i.i.i.i./ 8 9 E 0.0.u.i.i.i.i.i.i.i.i.i.i.+ ",
"+ 0.0.r.i.i.i.i.i.i.i.i.i.i.' 8 8 ~ 0.0.u.i.i.i.i.i.i.i.i.i.i.+ ",
"+ q.0.r.i.i.i.i.i.i.i.i.i.i.' 8 8 ~ 0.0.u.i.i.i.i.i.i.i.i.i.i.O ",
"+ 0.0.q.i.i.i.i.i.i.i.i.i.i.' 9 w ~ 0.0.u.i.i.i.i.i.i.i.i.i.i.O ",
"% R E ^  . . .o.o.O.O.@.$.$.A e e j H ~ / ' o.o.o.O.O.@.$.$.&.O ",
"f 2 2 1 2 2 2 3 2 2 3 3 2 2 4 K K 5 3 3 2 2 2 2 2 2 2 2 2 3 3 e ",
"f 2 3 3 3 3 6 } J 5 3 3 2 2 1 1 3 2 3 =.` 3 3 Z } 6 3 3 3 3 3 p ",
"+ [ [ [ &.&.v l , m E ^ ] o.o.O.$.$.*.i.y.$.' : l g [ [ $.&.&.+ ",
"+ 0.0.r.i.i.L d - %.0.0.i.i.i.i.i.i.i.i.i.i.5.; f m q.0.t.i.u.+ ",
"+ 0.0.r.i.i.L d , -.0.0.i.i.i.i.i.i.i.i.i.u.6.; a m 0.0.t.i.i.+ ",
"% 0.0.r.i.i.P h - -.0.q.i.i.i.i.i.i.i.i.i.i.5.; f m 0.0.t.i.i.o ",
"O 0.0.r.i.i.S f - -.0.q.i.i.i.i.i.i.i.i.i.i.6.; k m 0.0.t.i.i.+ ",
"+ >.>.<.e.e.M k , [ ;.;.7.7.6.6.4.,.4.,.,.,.O.; k b >.>.6.e.8.+ ",
"0 * * = * * , ) c * * * * * * - ; - * * * * * c ) , & * - * - 4 ",
"B 0 0 0 u u u u u u u u u u a } } s u u p u u u p i i i u u p x ",
"+ F F U U U U U L L L A A A t y u r n m A A P A U U U Y Y ! ! + ",
"+ q.0.r.i.i.i.i.i.i.i.i.i.i.' w 8 ~ 0.0.i.i.i.i.i.i.i.i.i.i.i.+ ",
"+ q.0.r.i.i.i.i.i.i.i.i.i.i.' 9 w ~ 0.0.u.i.i.i.i.i.i.i.i.i.i.O ",
"+ 0.0.r.i.i.i.i.i.i.i.i.i.i.' 8 8 ^ 0.0.i.i.i.i.i.i.i.i.i.i.i.O ",
"+ 0.0.r.i.i.i.i.i.i.i.i.i.i.' 8 8 E 0.0.i.i.i.i.i.i.i.i.i.i.i.O ",
"+ 0.0.r.i.i.i.i.i.i.i.i.i.t.' 8 9 ~ 1.1.t.i.i.i.i.i.i.i.i.i.i.O ",
"& + ; 1.D + X X .           . k k .                 O   O O + + "
};
