/* XPM */
static char *QmFja2dyb3VuZCslMjgyJTI5[] = {
/* columns rows colors chars-per-pixel */
"23 25 158 2 ",
"   c #272625",
".  c #2D2A25",
"X  c #312C25",
"o  c #392F24",
"O  c #353025",
"+  c #3D3424",
"@  c #433523",
"#  c #483722",
"$  c #423925",
"%  c #4B3923",
"&  c #423B29",
"*  c #533E23",
"=  c #6F4B1F",
"-  c #7A511F",
";  c #524223",
":  c #5B4322",
">  c #5B4E33",
",  c #5F5032",
"<  c #624D23",
"1  c #6D4B21",
"2  c #6B5222",
"3  c #6F5924",
"4  c #645329",
"5  c #6A522B",
"6  c #745322",
"7  c #7B5422",
"8  c #725922",
"9  c #7B5D22",
"0  c #675633",
"q  c #6F5A33",
"w  c #715C34",
"e  c #7C6222",
"r  c #77602C",
"t  c #786128",
"y  c #756037",
"u  c #7C6534",
"i  c #73613B",
"p  c #83561E",
"a  c #8A5E1F",
"s  c #89601F",
"d  c #97621F",
"f  c #9A651E",
"g  c #A3661C",
"h  c #A66B1E",
"j  c #A3751F",
"k  c #B6711D",
"l  c #BB761F",
"z  c #BA7C1E",
"x  c #815620",
"c  c #845E23",
"v  c #8B5D21",
"b  c #806524",
"n  c #8B6223",
"m  c #8F6A22",
"M  c #85622C",
"N  c #8F692F",
"B  c #946424",
"V  c #9C6722",
"C  c #936B22",
"Z  c #9B6A23",
"A  c #946A2C",
"S  c #9F6E29",
"D  c #947225",
"F  c #9A7221",
"G  c #9C7A2A",
"H  c #826635",
"J  c #8A6630",
"K  c #816A36",
"L  c #8A6B35",
"P  c #826738",
"I  c #936E31",
"U  c #8E7439",
"Y  c #957034",
"T  c #94753B",
"R  c #987539",
"E  c #9B7B3C",
"W  c #A26E22",
"Q  c #A86E21",
"!  c #AE7426",
"~  c #A57F26",
"^  c #A47129",
"/  c #A67F29",
"(  c #B37522",
")  c #B97721",
"_  c #BC7921",
"`  c #C07A1E",
"'  c #C37D21",
"]  c #C97F20",
"[  c #917445",
"{  c #9C7E42",
"}  c #AE8421",
"|  c #A4812E",
" . c #B28723",
".. c #B58A22",
"X. c #B98D22",
"o. c #B48B2C",
"O. c #BF932B",
"+. c #A68130",
"@. c #AC8037",
"#. c #AE8833",
"$. c #A5813F",
"%. c #B48E35",
"&. c #BE8936",
"*. c #BB9135",
"=. c #D3831D",
"-. c #DD871C",
";. c #DB8A1E",
":. c #DA911F",
">. c #E48E1F",
",. c #E88F1D",
"<. c #E6931E",
"1. c #EB911E",
"2. c #E19F1C",
"3. c #F3971E",
"4. c #F49B1E",
"5. c #F7A41E",
"6. c #F8A41E",
"7. c #FAAF1D",
"8. c #CB8120",
"9. c #D38520",
"0. c #D08826",
"q. c #DA8A21",
"w. c #C09123",
"e. c #CF9925",
"r. c #C49728",
"t. c #C5982F",
"y. c #C89928",
"u. c #D1902F",
"i. c #C69A33",
"p. c #C89B32",
"a. c #D09737",
"s. c #E08C20",
"d. c #EE9823",
"f. c #D1A02C",
"g. c #CFA135",
"h. c #D3A434",
"j. c #D3A33D",
"k. c #E4AE2C",
"l. c #F4BA3D",
"z. c #A48342",
"x. c #AA8845",
"c. c #B38E46",
"v. c #B69147",
"b. c #BA9347",
"n. c #BF9943",
"m. c #BC9548",
"M. c #BF984A",
"N. c #BF9849",
"B. c #C79E42",
"V. c #C99F43",
"C. c #C29A4B",
"Z. c #C89F4C",
"A. c #CEA242",
"S. c #D8AB50",
"D. c #DAAC51",
"F. c #DCAE50",
"G. c None",
"H. c black",
/* pixels */
"G.G.G.G.G.G.G.G.> i i w i i > G.H.H.H.H.H.H.H.",
"G.G.G.G.G.G.> u E n.B.A.B.n.E u , H.H.H.H.H.H.",
"G.G.G.G.G.U %.o.D c s s s c D o.*.U H.H.H.H.H.",
"G.G.G.G.K *.~ a V k d v f k f F e.t.K H.H.H.H.",
"G.G.G.u f.m a =.d.3.5 w 5 3.1.>.h j k.u G.G.G.",
"G.G.r o.m h ;.d.9.( P Z.P ^ W ) -.=.:.r.r G.G.",
"G.G.G  .9 ;.4.8.Z T x.D.x.E H B 1.1.z r.G G.G.",
"G.4 ..F l 4.<.C { z.T E T T H B 1.3.` F ..4 G.",
"& t X.s <.6.q.I b.w ^ ! ! ! ! ] 3.3.>.s X.t & ",
"& e } Z 6.7.q.I C., 6 7 7 V s.d.3.3.3.Z } b $ ",
"O e } h 4.4.3.V I M.v.c.v.{ J _ 3.3.3.W } e O ",
"O e  .W 3.4.3.] B L E { { m.{ B >.3.3.W } e X ",
". 3 ..C 1.3.3.3.d.8.' _ ) > m.Y ;.3.3.C  .8 X ",
". < X.m d.3.3.) B v B B v 0 b.I =.1.>.C X.< . ",
". $ ..| ( 3.d.v U C.C.Z.Z.F.R B -.-.W / X.+   ",
"X @ m y.a.3.s.W J R { D.{ N Q -.1.` M X.D % X ",
"X # :  .l.a.;.8.( Q w c.q ' d.>.] S +.~ 2 : O ",
"G.o + 3 r.*.&.0.s.3.c J c 3.q._ I / ..2 + % G.",
"G.G.# 7 3 t.j./ ^ ( V B B ) ^ Y @.o.3 1 @ G.G.",
"G.G.; 7 % 6 D i.*.{ [ [ [ { *.i.D 9 * - % G.G.",
"G.G.G.@ 1 = < 9 G i.g.h.h.i.G 9 < 6 7 % @ G.G.",
"G.G.G.G.* = B x - * 9 < 6 ; v 6 p 6 1 . G.G.G.",
"G.G.G.G.G.# 6 7 g @ ) 7 g @ ) x = # G.G.G.G.G.",
"G.G.G.G.G.G.# * - o _ x g + v * # G.G.G.G.G.G.",
"G.G.G.G.G.G.G.G.G.X O . X X G.G.G.G.G.G.G.G.G."
};
