/* XPM */
static char *ZmluaXNoLWxpbmU_[] = {
/* columns rows colors chars-per-pixel */
"32 32 101 2 ",
"   c #060401",
".  c #070401",
"X  c #070707",
"o  c #090502",
"O  c #0E0701",
"+  c #0B0705",
"@  c #070708",
"#  c #080909",
"$  c #090909",
"%  c #080A0A",
"&  c #090A0A",
"*  c #0A0B0B",
"=  c #0B0D0D",
"-  c #110902",
";  c #1A0E03",
":  c #1C0F04",
">  c #111111",
",  c #111213",
"<  c #121314",
"1  c #1D1510",
"2  c #1E1716",
"3  c #17181A",
"4  c #1B1D1F",
"5  c #1D1D1E",
"6  c #211B19",
"7  c #1D1F21",
"8  c #212324",
"9  c #27292B",
"0  c #292C2E",
"q  c #2D3032",
"w  c #313436",
"e  c #34373A",
"r  c #373A3D",
"t  c #383B3E",
"y  c #54433F",
"u  c #393D40",
"i  c #45494D",
"p  c #474B4F",
"a  c #5D4945",
"s  c #4D5256",
"d  c #4E5257",
"f  c #51565B",
"g  c #53585D",
"h  c #565C60",
"j  c #5B6165",
"k  c #63696E",
"l  c #646A6F",
"z  c #697075",
"x  c #6A7076",
"c  c #6C7278",
"v  c #6D747A",
"b  c #72797F",
"n  c #9C5812",
"m  c #C77017",
"M  c #6D7980",
"N  c #777F85",
"B  c #7A8188",
"V  c #7B828A",
"C  c #7D858C",
"Z  c #818990",
"A  c #838C93",
"S  c #858E95",
"D  c #878F97",
"F  c #889097",
"G  c #8D969D",
"H  c #8F989F",
"J  c #9099A0",
"K  c #939DA4",
"L  c #9AA3AB",
"P  c #9DA7AF",
"I  c #9FA9B1",
"U  c #A2ACB5",
"Y  c #A5AFB8",
"T  c #A9B3BC",
"R  c #B1BCC6",
"E  c #B7C2CC",
"W  c #BECAD4",
"Q  c #BFCBD6",
"!  c #C0CCD7",
"~  c #C3CFDA",
"^  c #C5D1DC",
"/  c #C7D3DD",
"(  c #C7D4DE",
")  c #C8D5DF",
"_  c #C3D8E5",
"`  c #CEDAE5",
"'  c #CFDCE7",
"]  c #C9DCE9",
"[  c #D1DEE9",
"{  c #D3E0EB",
"}  c #D5E3EC",
"|  c #D5E2ED",
" . c #D6E3EE",
".. c #D9E7F2",
"X. c #DAE8F3",
"o. c #DBE8F4",
"O. c #DCE9F5",
"+. c #DDEBF7",
"@. c #DEECF8",
"#. c #E1EFFB",
"$. c None",
/* pixels */
"$.$.$.$.$.$.$.$.$.$.$.$.$.$.$.$.$.$.$.$.$.$.$.$.$.$.$.$.$.$.$.$.",
"$.$.$.$.$.$.$.$.$.$.$.$.$.$.$.$.$.$.$.$.$.$.$.$.$.$.$.$.$.$.$.$.",
"$.$.$.$.$.$.$.$.$.$.$.$.$.$.$.$.$.$.$.$.$.$.$.$.$.$.$.$.$.$.$.$.",
"$.X $ @ @ V { < @ @ @ + @ @ @ @ @ @ @ @ @ @ @ + @ @ @ @ $ * $ $.",
"$.N #.#.#.#.#.#.#.#.#.#.#.#.#.#.#.#.#.#.#.#.#.#.#.#.#.#.] _ M = ",
"$.N #.#.R s s V #.A #.L ! #.A #.U / #.H g K #.J | @.D #.] _ M = ",
"$.N #.#.S C [ X.#.w #.j r #.w #.z T / p | ~ #.s / X.t #.] _ M = ",
"$.N #.#.S l W #.#.w #.j q Y w #.z T ..9 V O.#.s Z H t #.] _ M = ",
"$.N #.#.S g T #.#.w #.j P t w #.x T #. .c s #.s G P r #.] _ M = ",
"$.N #.#.S S #.#.#.w #.j E l 0 #.x T ( ! o.e #.s / X.u #.] _ M = ",
"$.N #.#.Y Y #.#.#.v #.S _ ' x #.H Q ` f i U #.C ' +.N #.] _ M = ",
"$.N #.#.#.#.#.#.#.#.#.#.#.#.#.#.#.#.#.#.#.#.#.#.#.#.+.@.] _ M = ",
"$.> 5 3 3 3 3 3 3 3 3 3 3 3 3 3 3 3 3 3 3 3 3 3 8 | F 3 7 7 > % ",
"$.y 2 $.$.$.$.$.$.$.$.$.$.$.$.$.$.$.$.$.$.$.$.$.$.$.$.$.$.2 a $.",
"$.a 6 $.$.$.$.$.$.$.$.$.$.$.$.$.$.$.$.$.$.$.$.$.$.$.$.$.$.6 a $.",
"$.a 6 $.$.$.$.$.$.$.$.$.$.$.$.$.$.$.$.$.$.$.$.$.$.$.$.$.$.6 a $.",
"$.a 6 $.$.$.$.$.$.$.$.$.$.$.$.$.$.$.$.$.$.$.$.$.$.$.$.$.$.6 a $.",
"$.a 6 $.$.$.$.$.$.$.$.$.$.$.$.$.$.$.$.$.$.$.$.$.$.$.$.$.$.6 a $.",
"$.a 6 $.$.$.$.$.$.$.$.$.$.$.$.$.$.$.$.$.$.$.$.$.$.$.$.$.$.6 a $.",
"$.a 6 $.$.$.$.$.$.$.$.$.$.$.$.$.$.$.$.$.$.$.$.$.$.$.$.$.$.6 a $.",
"$.a 6 $.$.$.$.$.$.$.$.$.$.$.$.$.$.$.$.$.$.$.$.$.$.$.$.$.$.6 a $.",
"$.a 6 $.$.$.$.$.$.$.$.$.$.$.$.$.$.$.$.$.$.$.$.$.$.$.$.$.$.6 a $.",
"$.a 6 $.$.$.$.$.$.$.$.$.$.$.$.$.$.$.$.$.$.$.$.$.$.$.$.$.$.6 a $.",
"$.a 6 $.$.$.$.$.$.$.$.$.$.$.$.$.$.$.$.$.$.$.$.$.$.$.$.$.$.6 a $.",
"$.a 6 $.$.$.$.$.$.$.$.$.$.$.$.$.$.$.$.$.$.$.$.$.$.$.$.$.$.6 a $.",
"$.a 6 $.$.$.$.$.$.$.$.$.$.$.$.$.$.$.$.$.$.$.$.$.$.$.$.$.$.6 a $.",
"O 1 + $.$.$.$.$.$.$.$.$.$.$.$.$.$.$.$.$.$.$.$.$.$.$.$.$.$.+ 1 O ",
"  m n ; $.$.$.$.$.$.$.$.$.$.$.$.$.$.$.$.$.$.$.$.$.$.$.$.; n m   ",
"- o o : $.$.$.$.$.$.$.$.$.$.$.$.$.$.$.$.$.$.$.$.$.$.$.$.:   o - ",
"$.$.$.$.$.$.$.$.$.$.$.$.$.$.$.$.$.$.$.$.$.$.$.$.$.$.$.$.$.$.$.$.",
"$.$.$.$.$.$.$.$.$.$.$.$.$.$.$.$.$.$.$.$.$.$.$.$.$.$.$.$.$.$.$.$.",
"$.$.$.$.$.$.$.$.$.$.$.$.$.$.$.$.$.$.$.$.$.$.$.$.$.$.$.$.$.$.$.$."
};
