/* XPM */
static char *QmFja2dyb3VuZCslMjg0JTI5[] = {
/* columns rows colors chars-per-pixel */
"23 29 161 2 ",
"   c #010101",
".  c #0A0704",
"X  c #1C130B",
"o  c #20160C",
"O  c #2A1D10",
"+  c #4D341D",
"@  c #7F4716",
"#  c #5F4124",
"$  c #744E2C",
"%  c #664627",
"&  c #594E76",
"*  c #5C5279",
"=  c #C50503",
"-  c #DF1206",
";  c #DB140C",
":  c #F70307",
">  c #FE0101",
",  c #FE0D0B",
"<  c #FE0D07",
"1  c #E01307",
"2  c #FB100E",
"3  c #E01E12",
"4  c #FE1A1A",
"5  c #FE1313",
"6  c #FD2B19",
"7  c #F32314",
"8  c #D81125",
"9  c #DA1D2A",
"0  c #C01A3B",
"q  c #C5253E",
"w  c #FE3328",
"e  c #FC3F3F",
"r  c #FD3232",
"t  c #804716",
"y  c #804817",
"u  c #834C1B",
"i  c #855022",
"p  c #895629",
"a  c #9B5E27",
"s  c #805731",
"d  c #8D5F36",
"f  c #9E622D",
"g  c #8C6036",
"h  c #BD793C",
"j  c #B57236",
"k  c #A86A34",
"l  c #FF4F2C",
"z  c #FF5831",
"x  c #C17C3D",
"c  c #9F2B5C",
"v  c #B42047",
"b  c #A82552",
"n  c #AF2F53",
"m  c #952D64",
"M  c #8C326E",
"N  c #9D3764",
"B  c #843574",
"V  c #843A75",
"C  c #976A43",
"Z  c #B37944",
"A  c #A37C5A",
"S  c #9C6F6F",
"D  c #A27C6E",
"F  c #FC4444",
"G  c #FC4B4A",
"H  c #FB5F5F",
"J  c #FF7140",
"K  c #FF7B45",
"L  c #FA7778",
"P  c #FB6A6A",
"I  c #AA8667",
"U  c #B5967B",
"Y  c #B0AB6F",
"T  c #B6B06B",
"R  c #A6A474",
"E  c #CC8B4E",
"W  c #D68C49",
"Q  c #D98F4A",
"!  c #DA904C",
"~  c #DB9554",
"^  c #FE854B",
"/  c #EA8D5E",
"(  c #F38956",
")  c #E99C55",
"_  c #E59C57",
"`  c #F4A55C",
"'  c #FDA35B",
"]  c #FCA95E",
"[  c #C5997B",
"{  c #D59672",
"}  c #D99B72",
"|  c #E68F62",
" . c #FD8C64",
".. c #FC9A77",
"X. c #F4A966",
"o. c #FFAD61",
"O. c #FFB067",
"+. c #FDBC7F",
"@. c #E8D84B",
"#. c #F1E045",
"$. c #3F51B5",
"%. c #60519E",
"&. c #6E6D9E",
"*. c #7D6F9A",
"=. c #67719D",
"-. c #494DAC",
";. c #5349A3",
":. c #4D5CAD",
">. c #575AA9",
",. c #444FB0",
"<. c #4354B3",
"1. c #4959B8",
"2. c #4857B4",
"3. c #5162BC",
"4. c #5865A6",
"5. c #7374A7",
"6. c #8C7493",
"7. c #A07988",
"8. c #7C828F",
"9. c #7884CA",
"0. c #939580",
"q. c #AB9693",
"w. c #BCA189",
"e. c #FB8B8B",
"r. c #FA8181",
"t. c #F99E9E",
"y. c #FB9595",
"u. c #C2A993",
"i. c #C5AB95",
"p. c #C7B19D",
"a. c #FCA083",
"s. c #FDBD82",
"d. c #CAB4A2",
"f. c #D2B1A6",
"g. c #C4A8A7",
"h. c #F9BEBE",
"j. c #F9B3B3",
"k. c #F9A9A9",
"l. c #FDC38E",
"z. c #FCCA9D",
"x. c #D5C5B7",
"c. c #FCCDA2",
"v. c #FBD2AC",
"b. c #E8CFB8",
"n. c #FBD6B3",
"m. c #FAD9BB",
"M. c #8E98D2",
"N. c #949ED4",
"B. c #B6BDE0",
"V. c #DCD0C5",
"C. c #C0C3DF",
"Z. c gray87",
"A. c #F6C3C2",
"S. c #E5DDD5",
"D. c #F8DBDB",
"F. c #E8E1DB",
"G. c #F9E4D7",
"H. c #CECFE4",
"J. c #CCD0E7",
"K. c #D3D7EA",
"L. c None",
/* pixels */
"L.L.L.L.L.t.G F F F F F F F y.L.L.L.L.L.L.L.L.",
"L.L.L.L.L.L > > > > > > > > P L.L.L.L.L.L.L.L.",
"L.L.L.A.4 > > > > > > > > > , , , , , , D.L.L.",
"L.L.L.A.3 - - - 1 7 6 6 7 = ; 6 w e F e L.L.L.",
"L.L.L.V.i @ t t u W o.o.E X $ ` c.L.L.L.L.L.L.",
"L.L.p.[ h a @ a h ) o.o.E X $ ` s.n.n.n.L.L.L.",
"L.L.p f ` h y j ] ] o.o.E O $ ` o.O.O.O.L.L.L.",
"L.L.i a ` x y a x ) o.o._ d s $ Z o.o.o.c.m.L.",
"L.L.i f ] x @ @ u W o.o.o.o.g . % o.o.o.o.+.L.",
"L.L.x.i.k x W ! ! ` o.o.~ # O   o + + + b.G.L.",
"L.L.L.V.i h o.o.] o.o.o.E X             Z.L.L.",
"L.L.L.L.L.v.o.o.o.o.o.o.o.o.o.o.z.L.L.L.L.L.L.",
"L.L.L.L.A.a.^ / { ( ^ ^ ( { | ^ ..h.L.L.L.L.L.",
"L.L.L.A.4 2 , n >.q < < 9 %.N 2 , 5 j.L.L.L.L.",
"L.L.e.P : > > b -.0 > > 8 ;.m : > > H e.L.L.L.",
"L.L.4 , > > > b -.0 > > 8 ;.m : > > , 5 D.L.L.",
"k.r.< > > > > b <.B b b m -.m : > > > > L t.L.",
"G > > > > > > b $.$.$.$.$.$.m : > > > > > r D.",
"..J J z : 0 V S T =.$.$.4.Y D V v > l J J  .G.",
"l.o.o.^ < c <.0.#.8.$.$.=.@.R <.M > K o.o.+.L.",
"l.] O.] ' 7.<.<.:.<.$.$.<.:.<.$.6.' ] o.o.+.L.",
"l.O.] X.} 6.$.<.$.$.$.$.$.$.$.$.*.} X.o.o.+.L.",
"l.o.o.} >.2.$.$.$.$.$.<.$.$.$.$.,.>.[ o.o.+.L.",
"m.c.z.f.2.$.$.$.<.9.M.M.9.1.$.$.$.<.g.c.z.n.L.",
"L.L.L.H.1.<.$.$.1.B.L.L.H.3.$.$.$.$.C.L.L.L.L.",
"L.L.d.q.* & & &.M.K.L.L.L.N.5.* & & q.p.L.L.L.",
"L.L.i y @ @ @ U L.L.L.L.L.L.u.i @ @ @ @ S.L.L.",
"i.I u y @ @ y U L.L.L.L.L.L.u.i @ @ @ @ I w.L.",
"I @ @ @ @ @ @ U L.L.L.L.L.L.u.u @ @ @ @ @ C S."
};
